<?xml version="1.0" ?><svg height="32px" version="1.1" viewBox="0 0 32 32" width="32px" xmlns="http://www.w3.org/2000/svg" xmlns:sketch="http://www.bohemiancoding.com/sketch/ns" xmlns:xlink="http://www.w3.org/1999/xlink"><title/><desc/><defs/><g fill="none" fill-rule="evenodd" id="Page-1" stroke="none" stroke-width="1"><g fill="#157EFB" id="icon-139-package"><path d="M4,13 L4,28 L29,28 L29,13 L19,13 L19,20 L14,20 L14,13 L4,13 L4,13 L4,13 Z M14,12 L4,12 L9,4 L15,4 L14,12 L14,12 Z M19,12 L29,12 L24,4 L18,4 L19,12 L19,12 Z M15,12 L18,12 L17,4 L16,4 L15,12 L15,12 Z M15,13 L15,19 L18,19 L18,13 L15,13 L15,13 Z M6,21 L6,22 L13,22 L13,21 L6,21 L6,21 Z M6,25 L6,26 L13,26 L13,25 L6,25 L6,25 Z M6,23 L6,24 L11,24 L11,23 L6,23 L6,23 Z" id="package"/></g></g></svg>